# xmcd
#
# Track frame offsets:
#	150
#	56107
#	101750
#	129726
#	161452
#	217769
#
# Disc length: 3757 seconds
#
# Revision: 0
# Processed by: cddbd v1.5.2PL0 Copyright (c) Steve Scherf et al.
# Submitted via: dBpowerAMP V4.0
#
DISCID=4f0eab06
DTITLE=Bhai Joginder Singh Riar[SB] - Gur Ka Darshan
DYEAR=2007
DGENRE=Blues
TTITLE0=Gur Ka Darshan
TTITLE1=Gun Gawa
TTITLE2=Aisa Jag Dekheya
TTITLE3=Na Daro Arso
TTITLE4=Tan Man Hoe Nihal
TTITLE5=Tuhi Tuhi
EXTD=
EXTT0=
EXTT1=
EXTT2=
EXTT3=
EXTT4=
EXTT5=
PLAYORDER=
